<svg width="17" height="14" viewBox="0 0 17 14" fill="none" xmlns="http://www.w3.org/2000/svg">
<g id="Group 1000007015">
<path id="Vector" d="M0.707031 4.69531V11.3273C0.707031 11.9423 0.951342 12.5322 1.38622 12.967C1.82109 13.4019 2.41091 13.6462 3.02592 13.6462H14.6204C15.2354 13.6462 15.8252 13.4019 16.2601 12.967C16.6949 12.5322 16.9393 11.9423 16.9393 11.3273V4.69531L10.0382 8.9412C9.67282 9.16602 9.25219 9.28505 8.82314 9.28505C8.3941 9.28505 7.97347 9.16602 7.60805 8.9412L0.707031 4.69531Z" fill="#1E93FF"/>
<path id="Vector_2" d="M16.9393 3.3336V3.21147C16.9393 2.59646 16.6949 2.00664 16.2601 1.57177C15.8252 1.13689 15.2354 0.892578 14.6204 0.892578H3.02592C2.41091 0.892578 1.82109 1.13689 1.38622 1.57177C0.951342 2.00664 0.707031 2.59646 0.707031 3.21147V3.3336L8.21559 7.95437C8.39831 8.06678 8.60862 8.12629 8.82314 8.12629C9.03766 8.12629 9.24798 8.06678 9.43069 7.95437L16.9393 3.3336Z" fill="#1E93FF"/>
</g>
</svg>
