<svg width="13" height="19" viewBox="0 0 13 19" fill="none" xmlns="http://www.w3.org/2000/svg">
<g id="Group 1000007020">
<path id="Vector" d="M12.2028 7.42898C12.2028 14.5033 6.10141 18.5724 6.10141 18.5724C6.10141 18.5724 0 14.5033 0 7.42898C0 5.45869 0.642825 3.5691 1.78706 2.1759C2.9313 0.782693 4.48321 0 6.10141 0C7.7196 0 9.27152 0.782693 10.4158 2.1759C11.56 3.5691 12.2028 5.45869 12.2028 7.42898Z" fill="#40FF62"/>
<path id="Vector_2" d="M8.53933 7.42862C8.53933 8.21674 8.2822 8.97257 7.8245 9.52985C7.36681 10.0871 6.74604 10.4002 6.09877 10.4002C5.45149 10.4002 4.83072 10.0871 4.37303 9.52985C3.91533 8.97257 3.6582 8.21674 3.6582 7.42862C3.6582 6.64051 3.91533 5.88467 4.37303 5.32739C4.83072 4.77011 5.45149 4.45703 6.09877 4.45703C6.74604 4.45703 7.36681 4.77011 7.8245 5.32739C8.2822 5.88467 8.53933 6.64051 8.53933 7.42862Z" fill="#1F262E"/>
</g>
</svg>
