<svg width="16" height="14" viewBox="0 0 16 14" fill="none" xmlns="http://www.w3.org/2000/svg">
<g id="travel-map--navigation-map-maps-gps">
<path id="Vector" d="M1.63941 12.7432C2.03251 12.673 2.4354 12.522 2.86515 12.3845C3.50736 12.179 4.14944 11.9461 4.74223 11.7963C4.88932 11.7591 5.04316 11.7618 5.19061 11.7976L9.09326 12.7433C9.74658 12.8862 10.3944 12.6162 11.1186 12.3845C11.5657 12.2414 12.0127 12.085 12.4431 11.9527C12.8923 11.8146 13.22 11.4084 13.22 10.9384V2.58081C13.22 2.11091 12.8868 1.70686 12.4186 1.74744C11.8981 1.79257 11.3415 1.92709 10.9448 2.02952C10.4718 2.15164 9.92811 2.40419 9.39955 2.64075C9.20121 2.72952 8.97903 2.74832 8.76785 2.69714L4.96654 1.776C4.31322 1.63302 3.3087 1.87012 2.69136 2.02952C2.30574 2.12909 1.87309 2.31536 1.43996 2.50898C1.07595 2.67171 0.839844 3.03411 0.839844 3.43284V11.9384C0.839844 12.4084 1.17682 12.8258 1.63941 12.7432Z" fill="#1E93FF" stroke="white" stroke-width="1.5" stroke-linejoin="round"/>
<path id="Intersect" d="M9.08475 12.7416L5.18889 11.7975C5.11525 11.7797 5.04003 11.7701 4.96484 11.7695V1.90288C4.96484 1.86071 4.96747 1.81896 4.97258 1.77783L8.76612 2.69709C8.87328 2.72306 8.98327 2.73101 9.09154 2.72095V12.6237C9.09154 12.6634 9.08924 12.7027 9.08475 12.7416Z" fill="#1E93FF" stroke="white" stroke-width="1.5" stroke-linejoin="round"/>
</g>
</svg>
