<svg width="16" height="16" viewBox="0 0 16 16" fill="none" xmlns="http://www.w3.org/2000/svg">
<path id="Vector" fill-rule="evenodd" clip-rule="evenodd" d="M0.707031 3.01823C0.707031 2.45447 0.930983 1.9138 1.32962 1.51517C1.72826 1.11653 2.26892 0.892578 2.83268 0.892578H3.80481C4.41416 0.892578 4.94557 1.30779 5.09366 1.89872L5.87661 5.03263C5.94005 5.28629 5.92724 5.55303 5.83977 5.79944C5.7523 6.04585 5.59406 6.26097 5.38487 6.41785L4.46872 7.10514C4.37307 7.1767 4.35252 7.28157 4.37944 7.35455C4.77933 8.44207 5.4108 9.42968 6.23014 10.249C7.04947 11.0683 8.03708 11.6998 9.1246 12.0997C9.19758 12.1266 9.30174 12.1061 9.37401 12.0104L10.0613 11.0943C10.2182 10.8851 10.4333 10.7269 10.6797 10.6394C10.9261 10.5519 11.1929 10.5391 11.4465 10.6025L14.5804 11.3855C15.1714 11.5336 15.5866 12.065 15.5866 12.675V13.6465C15.5866 14.2102 15.3626 14.7509 14.964 15.1495C14.5653 15.5482 14.0247 15.7721 13.4609 15.7721H11.8667C5.70372 15.7721 0.707031 10.7754 0.707031 4.61246V3.01823Z" fill="#1E93FF"/>
</svg>
