<svg width="24" height="23" viewBox="0 0 24 23" fill="none" xmlns="http://www.w3.org/2000/svg">
<g id="vuesax/linear/video">
<g id="vuesax/linear/video_2">
<g id="video">
<path id="Vector" d="M12.4126 19.0479H6.45847C3.4814 19.0479 2.49219 17.1317 2.49219 15.2063V7.52303C2.49219 4.63952 3.4814 3.6814 6.45847 3.6814H12.4126C15.3897 3.6814 16.3789 4.63952 16.3789 7.52303V15.2063C16.3789 18.0898 15.3802 19.0479 12.4126 19.0479Z" stroke="#40FF62" stroke-width="1.36875" stroke-linecap="round" stroke-linejoin="round"/>
<path id="Vector_2" d="M18.998 16.0179L16.3789 14.2385V8.48064L18.998 6.70126C20.2792 5.83438 21.3344 6.36363 21.3344 7.88751V14.8408C21.3344 16.3647 20.2792 16.8939 18.998 16.0179Z" stroke="#40FF62" stroke-width="1.36875" stroke-linecap="round" stroke-linejoin="round"/>
<path id="Vector_3" d="M11.442 10.4516C12.2224 10.4516 12.8551 9.83881 12.8551 9.08286C12.8551 8.32692 12.2224 7.71411 11.442 7.71411C10.6615 7.71411 10.0288 8.32692 10.0288 9.08286C10.0288 9.83881 10.6615 10.4516 11.442 10.4516Z" stroke="#40FF62" stroke-width="1.36875" stroke-linecap="round" stroke-linejoin="round"/>
</g>
</g>
</g>
</svg>
